<svg xmlns="http://www.w3.org/2000/svg" width="873" height="199" viewBox="0 0 873 199" fill="none"><rect width="873" height="199" fill="white"></rect><path fill-rule="evenodd" clip-rule="evenodd" d="M112.344 75.37C117.441 72.8277 123.929 69.0856 130.424 63.9583C131.793 66.8022 131.943 69.2837 131.238 71.2876C130.738 72.6999 129.795 73.9282 128.557 74.9055C127.215 75.9618 125.539 76.7304 123.687 77.1462C120.173 77.9377 116.07 77.4753 112.344 75.37" fill="black"></path><path fill-rule="evenodd" clip-rule="evenodd" d="M113.227 101.418L119.976 105.316C106.196 113.039 102.45 127.38 98.0003 141.349C93.5505 127.38 89.8041 113.039 76.0242 105.316L82.7733 101.418C84.0771 100.927 84.9759 99.6364 84.9067 98.1708C84.2882 85.0888 87.8206 79.304 92.5849 75.6717C94.294 74.3708 96.1592 73.7173 98.0003 73.7173C99.8411 73.7173 101.706 74.3708 103.415 75.6717C108.18 79.304 111.712 85.0888 111.094 98.1708C111.024 99.6364 111.923 100.927 113.227 101.418Z" fill="black"></path><path fill-rule="evenodd" clip-rule="evenodd" d="M98.0002 16C105.801 16.2097 113.622 17.7236 120.409 20.6702C125.109 22.7129 129.495 25.4114 133.465 28.6378C135.259 30.0944 136.735 31.5018 138.362 33.1215C142.75 33.2732 149.161 28.3991 152.138 23.8387C147.015 40.633 123.639 60.466 107.454 68.0549C107.448 68.0523 107.443 68.0481 107.438 68.0449C104.534 65.8273 101.267 64.7182 98.0002 64.7182C94.733 64.7182 91.4667 65.8273 88.5622 68.0449C88.5571 68.0474 88.5526 68.0524 88.5462 68.0549C72.3619 60.466 48.9854 40.633 43.8628 23.8387C46.8389 28.3991 53.2507 33.2732 57.638 33.1215C59.2651 31.5018 60.7418 30.0944 62.5349 28.6378C66.5059 25.4114 70.8916 22.7129 75.5915 20.6702C82.3789 17.7236 90.1995 16.2097 98.0002 16" fill="black"></path><path fill-rule="evenodd" clip-rule="evenodd" d="M83.6567 75.37C78.5592 72.8277 72.0715 69.0856 65.5768 63.9583C64.2072 66.8022 64.0572 69.2837 64.7625 71.2876C65.263 72.6999 66.205 73.9282 67.4434 74.9055C68.7856 75.9618 70.4611 76.7304 72.3136 77.1462C75.8279 77.9377 79.9309 77.4753 83.6567 75.37" fill="black"></path><path fill-rule="evenodd" clip-rule="evenodd" d="M137.537 57.6758C141.113 54.0673 144.263 50.0738 146.797 46.5099L148.083 48.9315C152.226 57.2185 154.378 65.4724 154.378 74.7619C154.378 79.6739 154.356 84.5896 154.369 89.5015C154.376 92.5815 154.398 94.0611 154.446 97.1427C154.747 115.901 158.806 134.881 168 152.25L148.763 136.738L135.151 158.826L120.851 145.365L98 182.447L75.1487 145.365L60.849 158.826L47.2375 136.738L28 152.25C37.1947 134.881 41.2535 115.901 41.5536 97.1427C41.6023 94.0611 41.6237 92.5815 41.6316 89.5015C41.6443 84.5896 41.6226 79.6739 41.6226 74.7619C41.6226 65.4724 43.7743 57.2185 47.9173 48.9315L49.2036 46.5099C51.7369 50.0738 54.8871 54.0673 58.4631 57.6758L57.3465 59.9952C55.1773 64.5004 54.4586 69.5373 56.1487 74.3276C57.2379 77.4131 59.2264 80.0592 61.7896 82.0795C64.2782 84.0413 67.2241 85.3634 70.3081 86.0578C72.3171 86.5099 74.3636 86.6962 76.3968 86.633C75.9222 89.3223 75.7152 92.1115 75.7015 94.954L57.5551 105.435L71.5581 113.284C72.7015 113.925 73.7598 114.646 74.7438 115.434C86.289 125.8 93.2298 156.465 98 171.443C102.77 156.465 109.711 125.8 121.256 115.434C122.241 114.646 123.298 113.925 124.442 113.284L138.445 105.435L120.298 94.954C120.285 92.1115 120.078 89.3223 119.603 86.633C121.637 86.6962 123.683 86.5099 125.692 86.0578C128.776 85.3634 131.722 84.0413 134.21 82.0795C136.774 80.0592 138.762 77.4131 139.851 74.3276C141.541 69.5373 140.823 64.5004 138.654 59.9952L137.537 57.6758Z" fill="black"></path><path d="M225.288 125C244.814 125 256.642 112.921 256.642 92.8946C256.642 72.9305 244.814 60.9144 225.476 60.9144H202.57V125H225.288ZM216.119 113.391V72.5237H224.756C236.772 72.5237 243.124 78.6569 243.124 92.8946C243.124 107.195 236.772 113.391 224.725 113.391H216.119ZM266.679 125H309.987V113.829H280.228V98.5272H307.64V87.356H280.228V72.0856H309.862V60.9144H266.679V125ZM333.338 60.9144H317.974L337.657 92.9572L317.599 125H333.119L346.262 103.127H346.762L359.905 125H375.488L355.493 92.9572L375.05 60.9144H359.749L346.762 82.7561H346.262L333.338 60.9144Z" fill="black"></path><path d="M428.631 76.9358H436.141C435.796 67.2667 426.878 60.0383 414.487 60.0383C402.22 60.0383 392.583 67.1728 392.583 77.9372C392.583 86.5737 398.841 91.7055 408.854 94.5844L416.74 96.8374C423.499 98.7149 429.507 101.093 429.507 107.477C429.507 114.486 422.748 119.117 413.861 119.117C406.226 119.117 399.467 115.738 398.841 108.478H390.83C391.581 118.992 400.093 126.127 413.861 126.127C428.631 126.127 437.017 117.991 437.017 107.602C437.017 95.5857 425.627 91.7055 418.993 89.9532L412.484 88.2009C407.728 86.9492 400.093 84.4459 400.093 77.5617C400.093 71.4285 405.725 66.9225 414.236 66.9225C421.997 66.9225 427.88 70.6149 428.631 76.9358ZM501.345 80.9412C498.967 67.7986 488.453 60.0383 475.56 60.0383C459.164 60.0383 447.273 72.6801 447.273 92.9572C447.273 113.234 459.164 125.876 475.56 125.876C488.453 125.876 498.967 118.116 501.345 104.973H493.585C491.707 113.86 484.072 118.616 475.56 118.616C463.92 118.616 454.783 109.604 454.783 92.9572C454.783 76.31 463.92 67.298 475.56 67.298C484.072 67.298 491.707 72.0543 493.585 80.9412H501.345ZM513.885 125H521.645V99.9666H535.664C536.227 99.9666 536.759 99.9666 537.291 99.9353L550.809 125H559.821L545.333 98.5272C553.5 95.7422 557.318 89.077 557.318 80.5657C557.318 69.2381 550.559 60.9144 535.539 60.9144H513.885V125ZM521.645 92.9572V67.7986H535.289C545.678 67.7986 549.683 72.8679 549.683 80.5657C549.683 88.2635 545.678 92.9572 535.414 92.9572H521.645ZM570.249 125H609.427V118.116H578.01V96.3367H606.923V89.4525H578.01V67.7986H608.926V60.9144H570.249V125ZM622.913 125H662.091V118.116H630.674V96.3367H659.587V89.4525H630.674V67.7986H661.59V60.9144H622.913V125ZM726.395 60.9144H718.76V111.357H718.134L683.088 60.9144H675.578V125H683.338V74.6828H683.964L718.885 125H726.395V60.9144ZM741.924 125H781.101V118.116H749.684V96.3367H778.598V89.4525H749.684V67.7986H780.601V60.9144H741.924V125ZM794.588 125H802.348V99.9666H816.367C816.93 99.9666 817.462 99.9666 817.994 99.9353L831.512 125H840.524L826.036 98.5272C834.203 95.7422 838.021 89.077 838.021 80.5657C838.021 69.2381 831.262 60.9144 816.242 60.9144H794.588V125ZM802.348 92.9572V67.7986H815.992C826.38 67.7986 830.386 72.8679 830.386 80.5657C830.386 88.2635 826.38 92.9572 816.117 92.9572H802.348Z" fill="black"></path></svg>